<svg width="32" height="32" fill="none" xmlns="http://www.w3.org/2000/svg"><path d="M12.04 28.92l3.107-2.613c.466-.4 1.24-.4 1.706 0l3.107 2.613c.72.36 1.6 0 1.867-.773l.586-1.774c.147-.426 0-1.053-.32-1.373l-3.026-3.04c-.227-.213-.4-.64-.4-.947v-3.8c0-.56.413-.826.933-.613l6.547 2.827c1.026.44 1.866-.107 1.866-1.227v-1.72c0-.893-.666-1.92-1.493-2.267L19.067 11a.739.739 0 01-.4-.613v-4c0-1.254-.92-2.734-2.04-3.307-.4-.2-.867-.2-1.267 0-1.12.573-2.04 2.067-2.04 3.32v4a.74.74 0 01-.4.613l-7.44 3.214c-.827.333-1.493 1.36-1.493 2.253v1.72c0 1.12.84 1.667 1.866 1.227L12.4 16.6c.507-.227.933.053.933.613v3.8c0 .307-.173.734-.386.947L9.92 25c-.32.32-.467.933-.32 1.373l.587 1.774a1.311 1.311 0 001.853.773z" stroke="#009974" stroke-width="2" stroke-linecap="round" stroke-linejoin="round" opacity=".5"/></svg>