<svg width="14" height="14" fill="none" xmlns="http://www.w3.org/2000/svg"><path d="M5.267 12.652l1.36-1.143a.597.597 0 01.746 0l1.36 1.143c.314.158.7 0 .816-.338l.257-.776a.645.645 0 00-.14-.6l-1.324-1.33a.648.648 0 01-.175-.415V7.531c0-.245.18-.362.408-.269L11.439 8.5c.45.193.817-.047.817-.537V7.21c0-.39-.292-.84-.654-.992l-3.26-1.406a.323.323 0 01-.175-.268v-1.75c0-.548-.403-1.196-.893-1.447a.618.618 0 00-.554 0c-.49.251-.893.905-.893 1.453v1.75a.323.323 0 01-.175.268L2.397 6.224c-.361.146-.653.595-.653.986v.752c0 .49.368.73.817.537l2.864-1.237c.222-.099.408.024.408.269v1.662a.675.675 0 01-.169.414l-1.324 1.33a.641.641 0 00-.14.601l.257.776c.105.338.49.502.81.338z" stroke="#009974" stroke-width="1.5" stroke-linecap="round" stroke-linejoin="round"/></svg>