<svg width="32" height="32" fill="none" xmlns="http://www.w3.org/2000/svg"><g opacity=".5" stroke="#009974" stroke-width="2" stroke-linecap="round" stroke-linejoin="round"><path d="M16.188 20.093V17.48c0-3.36 2.72-6.093 6.093-6.093h2.613"/><path d="M7.496 11.4h2.614c3.36 0 6.093 2.72 6.093 6.093V23"/><path d="M9.521 9l-2.4 2.4 2.4 2.4M22.48 9l2.4 2.4-2.4 2.4"/><path d="M12.001 29.333h8c6.667 0 9.334-2.666 9.334-9.333v-8c0-6.667-2.667-9.333-9.334-9.333h-8c-6.666 0-9.333 2.666-9.333 9.333v8c0 6.667 2.667 9.333 9.333 9.333z"/></g></svg>