<svg width="32" height="32" fill="none" xmlns="http://www.w3.org/2000/svg"><path d="M5.68 14.693v6.627c0 2.427 0 2.427 2.293 3.973l6.307 3.64c.946.547 2.493.547 3.44 0l6.306-3.64c2.294-1.546 2.294-1.546 2.294-3.973v-6.627c0-2.426 0-2.426-2.294-3.973L17.72 7.08c-.947-.547-2.494-.547-3.44 0l-6.307 3.64C5.68 12.267 5.68 12.267 5.68 14.693z" stroke="#009974" stroke-width="2" stroke-linecap="round" stroke-linejoin="round"/><path d="M23.335 10.173V6.667c0-2.667-1.334-4-4-4h-6.667c-2.667 0-4 1.333-4 4v3.413m8.17 4.573l.76 1.187c.12.187.387.373.587.427l1.36.346c.84.214 1.067.934.52 1.6l-.893 1.08c-.134.174-.24.48-.227.694l.08 1.4c.053.866-.56 1.306-1.36.986l-1.307-.52a1.15 1.15 0 00-.733 0l-1.307.52c-.8.32-1.413-.133-1.36-.986l.08-1.4a1.166 1.166 0 00-.226-.694l-.894-1.08c-.546-.666-.32-1.386.52-1.6l1.36-.346c.214-.054.48-.254.587-.427l.76-1.187c.48-.72 1.227-.72 1.693 0z" stroke="#009974" stroke-width="2" stroke-linecap="round" stroke-linejoin="round"/></svg>