<svg width="32" height="32" fill="none" xmlns="http://www.w3.org/2000/svg"><g opacity=".5" stroke="#009974" stroke-width="2" stroke-miterlimit="10" stroke-linecap="round" stroke-linejoin="round"><path d="M8.935 24h-3.4c-1.907 0-2.867-.96-2.867-2.867v-15.6c0-1.906.96-2.866 2.867-2.866h5.733c1.907 0 2.867.96 2.867 2.866V8"/><path d="M23.16 11.227v14.88c0 2.146-1.066 3.226-3.213 3.226H12.16c-2.146 0-3.226-1.08-3.226-3.226v-14.88C8.934 9.08 10.014 8 12.16 8h7.787c2.147 0 3.213 1.08 3.213 3.227z"/><path d="M17.867 8V5.533c0-1.906.96-2.866 2.867-2.866h5.733c1.907 0 2.867.96 2.867 2.866v15.6c0 1.907-.96 2.867-2.867 2.867h-3.306m-9.829-9.333h5.333m-5.333 4h5.333M16 29.333v-4"/></g></svg>