<svg width="32" height="32" fill="none" xmlns="http://www.w3.org/2000/svg"><g opacity=".5" stroke="#009974" stroke-width="2" stroke-linecap="round" stroke-linejoin="round"><path d="M29.333 11.333a8.666 8.666 0 01-9.36 8.64c-.333-4.226-3.72-7.613-7.946-7.946a8.666 8.666 0 018.64-9.36 8.666 8.666 0 018.666 8.666z"/><path d="M20 20.667a8.666 8.666 0 01-8.667 8.666 8.666 8.666 0 01-8.666-8.666 8.666 8.666 0 1117.333 0z"/><path d="M10.16 19.493l1.173-2.16 1.174 2.16 2.16 1.174-2.16 1.173L11.333 24l-1.173-2.16L8 20.667l2.16-1.174z"/></g></svg>