<svg width="14" height="14" fill="none" xmlns="http://www.w3.org/2000/svg"><path d="M12.816 10.693c0 .21-.046.425-.146.635-.099.21-.227.409-.396.595a2.63 2.63 0 01-.957.689c-.35.146-.73.221-1.137.221-.596 0-1.231-.14-1.902-.425a10.26 10.26 0 01-2.007-1.155 16.767 16.767 0 01-1.913-1.634A16.574 16.574 0 012.73 7.712a10.4 10.4 0 01-1.143-1.99c-.28-.665-.42-1.3-.42-1.907 0-.397.07-.776.21-1.126.14-.356.362-.682.67-.974.374-.368.782-.548 1.214-.548a1.1 1.1 0 01.473.105.95.95 0 01.39.326l1.354 1.908c.105.146.18.28.233.408a.922.922 0 01.082.356c0 .14-.041.28-.123.414a1.984 1.984 0 01-.326.414L4.9 5.56a.312.312 0 00-.093.233.53.53 0 00.017.135c.018.046.035.081.047.116.105.193.286.444.543.747.262.303.542.612.845.922.315.309.619.595.928.857.303.257.554.432.752.537.03.011.065.029.105.046a.403.403 0 00.146.024.32.32 0 00.24-.1l.443-.437a1.79 1.79 0 01.42-.327.777.777 0 01.414-.122.93.93 0 01.356.076c.128.052.262.128.408.227l1.931 1.371a.884.884 0 01.32.373c.06.146.094.292.094.456z" stroke="#009974" stroke-miterlimit="10"/></svg>