<svg width="20" height="20" fill="none" xmlns="http://www.w3.org/2000/svg"><path d="M11.667 7.75v2.417h2.166c.167 0 .25.166.25.333l-.333 1.583c0 .084-.167.167-.25.167h-1.833v6.083h-2.5v-6H7.75c-.167 0-.25-.083-.25-.25V10.5c0-.167.083-.25.25-.25h1.417V7.5c0-1.417 1.083-2.5 2.5-2.5h2.25c.166 0 .25.083.25.25v2c0 .167-.084.25-.25.25h-2c-.167 0-.25.083-.25.25z" stroke="#009974" stroke-width="1.5" stroke-miterlimit="10" stroke-linecap="round"/><path d="M12.5 18.333h-5c-4.167 0-5.833-1.666-5.833-5.833v-5c0-4.167 1.666-5.833 5.833-5.833h5c4.167 0 5.833 1.666 5.833 5.833v5c0 4.166-1.666 5.833-5.833 5.833z" stroke="#009974" stroke-width="1.5" stroke-linecap="round" stroke-linejoin="round"/></svg>