<svg width="32" height="32" fill="none" xmlns="http://www.w3.org/2000/svg"><g opacity=".5" stroke="#009974" stroke-width="2" stroke-linecap="round" stroke-linejoin="round"><path d="M16 29.333c7.364 0 13.333-5.97 13.333-13.333 0-7.364-5.97-13.333-13.333-13.333C8.636 2.667 2.667 8.637 2.667 16c0 7.364 5.97 13.333 13.333 13.333z"/><path d="M10.667 4H12a37.899 37.899 0 000 24h-1.333M20 4a37.898 37.898 0 010 24"/><path d="M4 21.333V20a37.898 37.898 0 0024 0v1.333M4 12a37.899 37.899 0 0124 0"/></g></svg>