<svg width="24" height="10" fill="none" xmlns="http://www.w3.org/2000/svg"><path d="M20.374.66c-.075.365-.168 2.298-1.216 3.491-.164.183-.79.72-.96.642-.523-.237-.757-1.657-.813-2.387a5.434 5.434 0 01.201-2.343c-1.403-.364-4.21.923-4.936 1.884.543.397 1.063.827 1.558 1.287.348.395.645.836.884 1.312.206.365.604 1.267.225 1.435A7.053 7.053 0 0112 6.592a7.057 7.057 0 01-3.322-.611c-.374-.168 0-1.07.225-1.435.243-.475.541-.916.889-1.312a16.723 16.723 0 011.558-1.262C10.625.986 7.832-.301 6.414.063a5.58 5.58 0 01.201 2.343c-.056.73-.29 2.15-.814 2.387-.168.078-.795-.46-.959-.642C3.794 2.958 3.696 1.025 3.626.661 2.096 1.054.2 3.618 0 5.62 3.471 5.621 4.374 10 12 10s8.51-4.379 12-4.379c-.201-1.973-2.096-4.566-3.626-4.96z" fill="#009974"/></svg>