<svg width="32" height="32" fill="none" xmlns="http://www.w3.org/2000/svg"><path d="M3.053 10.373v12.974c0 2.533 1.8 3.573 3.987 2.32l3.133-1.787c.68-.387 1.814-.427 2.52-.067l7 3.507c.707.347 1.84.32 2.52-.067l5.774-3.306c.733-.427 1.346-1.467 1.346-2.32V8.653c0-2.533-1.8-3.573-3.986-2.32L22.213 8.12c-.68.387-1.813.427-2.52.067l-7-3.494c-.706-.346-1.84-.32-2.52.067L4.4 8.067c-.747.426-1.347 1.466-1.347 2.306zm8.36-5.04v17.334m9.56-13.84v17.84" opacity=".5" stroke="#009974" stroke-width="2" stroke-linecap="round" stroke-linejoin="round"/></svg>