<svg xmlns="http://www.w3.org/2000/svg" width="9.9mm" height="9.9mm" viewBox="0 0 990 990" shape-rendering="geometricPrecision" text-rendering="geometricPrecision" image-rendering="optimizeQuality" fill-rule="evenodd" clip-rule="evenodd"><defs><style>.str0{stroke:#fff;stroke-width:39.69;stroke-miterlimit:22.9256}.fil1{fill:none;fill-rule:nonzero}</style></defs><g id="Слой_x0020_1"><g id="_2841541343088"><path d="M537.28 124c233.76 0 423.33 189.57 423.33 423.33 0 233.75-189.57 423.32-423.33 423.32v.01c-233.75-.01-423.32-189.58-423.32-423.33h-.01C113.96 313.57 303.53 124 537.28 124z" fill="#009974" fill-rule="nonzero"/><path class="fil1 str0" d="M537.27 569.4c26.6 0 48.16-21.56 48.16-48.15 0-26.6-21.56-48.16-48.16-48.16-26.59 0-48.15 21.56-48.15 48.16 0 26.59 21.56 48.15 48.15 48.15z"/><path class="fil1 str0" d="M407.93 493.16c30.41-133.66 228.43-133.51 258.68.15 17.75 78.41-31.02 144.77-73.78 185.83-31.02 29.94-80.1 29.94-111.28 0-42.59-41.06-91.37-107.58-73.62-185.98z"/><path d="M29.38 117.96v115.76M98.84 79.38V272.3m69.45-231.51v270.1m69.45-231.51V272.3m69.46-154.34v115.76" fill="none" stroke="#213a8f" stroke-linecap="round" stroke-linejoin="round" stroke-width="39.69" stroke-miterlimit="22.926"/></g></g></svg>