<svg width="18" height="18" fill="none" xmlns="http://www.w3.org/2000/svg"><path d="M12.75 13.823h-3l-3.338 2.22a.748.748 0 01-1.162-.623v-1.597c-2.25 0-3.75-1.5-3.75-3.75v-4.5c0-2.25 1.5-3.75 3.75-3.75h7.5c2.25 0 3.75 1.5 3.75 3.75v4.5c0 2.25-1.5 3.75-3.75 3.75z" stroke="#009974" stroke-miterlimit="10" stroke-linecap="round" stroke-linejoin="round"/><path d="M9 8.52v-.157c0-.51.316-.78.63-.998.308-.21.616-.48.616-.975 0-.69-.555-1.245-1.245-1.245-.69 0-1.245.555-1.245 1.245m1.241 3.923h.006" stroke="#009974" stroke-linecap="round" stroke-linejoin="round"/></svg>