<svg width="20" height="20" fill="none" xmlns="http://www.w3.org/2000/svg"><path d="M14.983 8.992v3.333c0 .217-.008.425-.033.625-.192 2.25-1.517 3.367-3.958 3.367h-.334c-.208 0-.408.1-.533.266l-1 1.334c-.442.591-1.158.591-1.6 0l-1-1.334a.77.77 0 00-.533-.266h-.334c-2.658 0-3.991-.659-3.991-3.992V8.992c0-2.442 1.125-3.767 3.366-3.959.2-.025.409-.033.625-.033h5.334c2.658 0 3.991 1.333 3.991 3.992z" stroke="#B3B3B3" stroke-width="1.5" stroke-miterlimit="10" stroke-linecap="round" stroke-linejoin="round"/><path d="M18.317 5.658v3.334c0 2.45-1.125 3.766-3.367 3.958.025-.2.033-.409.033-.625V8.992C14.983 6.333 13.65 5 10.992 5H5.658c-.216 0-.425.008-.625.033.192-2.241 1.517-3.367 3.959-3.367h5.333c2.658 0 3.992 1.334 3.992 3.992z" stroke="#B3B3B3" stroke-width="1.5" stroke-miterlimit="10" stroke-linecap="round" stroke-linejoin="round"/><path d="M11.246 11.042h.008m-2.924 0h.007m-2.924 0h.007" stroke="#B3B3B3" stroke-width="2" stroke-linecap="round" stroke-linejoin="round"/></svg>