<svg width="32" height="32" fill="none" xmlns="http://www.w3.org/2000/svg"><path d="M17.735 10.813l1.76 3.52c.24.48.88.96 1.413 1.04l3.187.534c2.04.346 2.52 1.813 1.053 3.28l-2.48 2.48c-.413.413-.653 1.226-.52 1.813l.707 3.08c.56 2.427-.734 3.373-2.88 2.107l-2.987-1.774c-.547-.32-1.427-.32-1.973 0l-2.987 1.774c-2.147 1.266-3.44.32-2.88-2.107l.707-3.08c.133-.573-.107-1.387-.52-1.813l-2.48-2.48c-1.467-1.467-.987-2.947 1.053-3.28l3.187-.534c.533-.093 1.173-.56 1.413-1.04l1.76-3.52c.947-1.906 2.52-1.906 3.467 0zM8 12V2.667M24 12V2.667m-8 2.666V2.667" opacity=".5" stroke="#009974" stroke-width="2" stroke-linecap="round" stroke-linejoin="round"/></svg>