<svg width="32" height="32" fill="none" xmlns="http://www.w3.org/2000/svg"><g opacity=".5" stroke="#009974" stroke-linecap="round" stroke-linejoin="round"><path d="M8.973 26.267c1.094-1.174 2.76-1.08 3.72.2l1.347 1.8c1.08 1.426 2.827 1.426 3.907 0l1.346-1.8c.96-1.28 2.627-1.374 3.72-.2 2.374 2.533 4.307 1.693 4.307-1.854V9.387c.013-5.374-1.24-6.72-6.28-6.72H10.96c-5.04 0-6.293 1.346-6.293 6.72V24.4c0 3.56 1.946 4.387 4.306 1.867zM12 17.333l8-8" stroke-width="2"/><path d="M19.993 17.333h.012M11.993 10h.012" stroke-width="3"/></g></svg>