<svg width="32" height="32" fill="none" xmlns="http://www.w3.org/2000/svg"><g opacity=".5" stroke="#009974" stroke-width="2"><path d="M2.76 6.133c1.067-4.613 8.013-4.613 9.067 0 .626 2.707-1.094 5-2.587 6.427-1.093 1.04-2.813 1.027-3.907 0-1.48-1.427-3.2-3.72-2.573-6.427zm17.333 16c1.067-4.613 8.054-4.613 9.12 0 .627 2.707-1.093 5-2.6 6.427-1.093 1.04-2.826 1.027-3.92 0-1.506-1.427-3.226-3.72-2.6-6.427z"/><path d="M16 6.667h3.573c2.467 0 3.614 3.053 1.76 4.68l-10.653 9.32c-1.853 1.613-.707 4.666 1.747 4.666H16m-8.685-18h.015m17.318 16h.016" stroke-linecap="round" stroke-linejoin="round"/></g></svg>