<svg width="32" height="32" fill="none" xmlns="http://www.w3.org/2000/svg"><g opacity=".5" stroke="#009974" stroke-width="2" stroke-linecap="round" stroke-linejoin="round"><path d="M23.133 12.067l-3.12 10.053c-.746 2.387-4.093 2.427-4.88.053l-.933-2.76a2.526 2.526 0 00-1.613-1.613l-2.774-.933c-2.36-.787-2.32-4.16.067-4.88l10.053-3.134c1.974-.6 3.827 1.254 3.2 3.214z"/><path d="M12 29.333h8c6.667 0 9.333-2.666 9.333-9.333v-8c0-6.667-2.666-9.333-9.333-9.333h-8c-6.667 0-9.333 2.666-9.333 9.333v8c0 6.667 2.666 9.333 9.333 9.333z"/></g></svg>