<svg width="20" height="20" fill="none" xmlns="http://www.w3.org/2000/svg"><path d="M1.667 7.5V5.417a3.745 3.745 0 013.75-3.75H7.5m5 0h2.083a3.745 3.745 0 013.75 3.75V7.5m0 5.833v1.25a3.745 3.745 0 01-3.75 3.75h-1.25m-5.833 0H5.417a3.745 3.745 0 01-3.75-3.75V12.5m5.416-3.333a2.083 2.083 0 100-4.167 2.083 2.083 0 000 4.167zM6.25 15a1.25 1.25 0 100-2.5 1.25 1.25 0 000 2.5zm7.5-7.5a1.25 1.25 0 100-2.5 1.25 1.25 0 000 2.5zm-.833 7.5a2.083 2.083 0 100-4.167 2.083 2.083 0 000 4.167z" stroke="#213A8F" stroke-width="1.5" stroke-linecap="round" stroke-linejoin="round"/></svg>