<svg width="24" height="24" fill="none" xmlns="http://www.w3.org/2000/svg"><path d="M15 22H9c-5 0-7-2-7-7V9c0-5 2-7 7-7h6c5 0 7 2 7 7v6c0 5-2 7-7 7z" stroke="#213A8F" stroke-width="1.5" stroke-linecap="round" stroke-linejoin="round"/><mask id="a" maskUnits="userSpaceOnUse" x="5" y="6" width="15" height="13" fill="#000"><path fill="#fff" d="M5 6h15v13H5z"/><path d="M10.46 17c4.15 0 6.42-3.462 6.42-6.464a5.72 5.72 0 00-.006-.294c.44-.32.824-.721 1.126-1.177-.404.181-.84.303-1.296.358.466-.281.824-.726.992-1.257-.436.26-.919.45-1.433.552A2.247 2.247 0 0014.616 8a2.265 2.265 0 00-2.257 2.272c0 .178.02.351.059.518a6.394 6.394 0 01-4.653-2.374 2.278 2.278 0 00-.305 1.142c0 .788.398 1.484 1.004 1.891a2.229 2.229 0 01-1.022-.284v.029c0 1.1.778 2.019 1.81 2.227a2.247 2.247 0 01-1.019.04 2.261 2.261 0 002.108 1.577A4.508 4.508 0 017 15.98 6.358 6.358 0 0010.46 17"/></mask><path d="M16.874 10.242l-.882-1.213a1.5 1.5 0 00-.616 1.28l1.498-.067zM18 9.065l1.25.83a1.5 1.5 0 00-1.863-2.199L18 9.066zm-1.296.358l-.775-1.284a1.5 1.5 0 00.954 2.773l-.179-1.489zm.992-1.257l1.43.455a1.5 1.5 0 00-2.198-1.743l.768 1.288zm-1.433.552L15.166 9.74c.354.38.88.55 1.39.448l-.293-1.471zm-3.846 2.072l-.075 1.498a1.5 1.5 0 001.537-1.838l-1.461.34zM7.766 8.416l1.166-.944a1.5 1.5 0 00-2.465.194l1.3.75zm.7 3.033l-.047 1.5a1.5 1.5 0 00.883-2.745l-.837 1.245zm-1.023-.284l.733-1.309a1.5 1.5 0 00-2.232 1.257l1.5.052zm1.81 2.256l.397 1.447a1.5 1.5 0 00-.1-2.917l-.297 1.47zm-1.019.04l.285-1.474a1.5 1.5 0 00-1.714 1.928l1.43-.455zm2.108 1.577l.93 1.178a1.5 1.5 0 00-.902-2.678l-.028 1.5zM7 15.98l.177-1.49a1.5 1.5 0 00-.99 2.75L7 15.98zm3.46 2.521c5.16 0 7.92-4.327 7.92-7.964h-3c0 2.367-1.779 4.964-4.92 4.964v3zm7.92-7.964c0-.119-.002-.24-.007-.362l-2.997.135a5 5 0 01.005.227h3zm-.623.919a6.105 6.105 0 001.493-1.56l-2.5-1.659a3.108 3.108 0 01-.758.793l1.765 2.426zm-.37-3.759c-.266.12-.555.2-.862.238l.358 2.978a5.975 5.975 0 001.73-.478l-1.226-2.738zm.092 3.011a3.778 3.778 0 001.647-2.086l-2.859-.91a.777.777 0 01-.338.428l1.55 2.568zm-.551-3.829c-.292.175-.614.3-.957.369l.584 2.942a6.007 6.007 0 001.91-.735l-1.537-2.576zm.432.817A3.747 3.747 0 0014.616 6.5v3c.215 0 .41.09.55.24l2.194-2.045zM14.616 6.5c-2.084 0-3.757 1.698-3.757 3.772h3c0-.435.348-.772.757-.772v-3zm-3.757 3.772c0 .29.032.577.098.858l2.921-.68a.784.784 0 01-.019-.178h-3zm1.634-.98a4.894 4.894 0 01-3.562-1.82L6.6 9.36a7.894 7.894 0 005.742 2.928l.151-2.996zM6.466 7.666a3.778 3.778 0 00-.506 1.892h3c0-.144.038-.277.105-.392l-2.599-1.5zM5.96 9.558c0 1.304.66 2.46 1.668 3.136l1.673-2.49a.774.774 0 01-.341-.646h-3zm2.55.392a.729.729 0 01-.335-.094L6.71 12.474c.507.284 1.09.455 1.709.474L8.51 9.95zm-2.567 1.163l-.001.081h3v-.004.027l-2.999-.104zm-.001.081a3.769 3.769 0 003.014 3.698l.593-2.941a.77.77 0 01-.607-.757h-3zm2.913.78a.745.745 0 01-.198.027v3c.342 0 .675-.046.992-.133l-.794-2.893zm-.198.027a.727.727 0 01-.14-.014l-.569 2.946c.228.044.464.068.71.068v-3zm-1.853 1.914a3.761 3.761 0 003.51 2.623l.055-3a.761.761 0 01-.707-.533l-2.858.91zm2.608-.054a3.008 3.008 0 01-1.874.65v3a6.008 6.008 0 003.732-1.295L9.412 13.86zm-1.874.65c-.124 0-.245-.007-.36-.021l-.355 2.979c.237.028.476.042.715.042v-3zM6.187 17.24a7.857 7.857 0 004.272 1.26v-3c-.974 0-1.88-.287-2.646-.781l-1.626 2.52z" fill="#213A8F" mask="url(#a)"/></svg>