<svg width="32" height="32" fill="none" xmlns="http://www.w3.org/2000/svg"><g opacity=".5" stroke="#009974" stroke-width="2" stroke-linecap="round" stroke-linejoin="round"><path d="M12 29.333h8c6.667 0 9.333-2.666 9.333-9.333v-8c0-6.667-2.666-9.334-9.333-9.334h-8c-6.667 0-9.333 2.667-9.333 9.334v8c0 6.666 2.666 9.333 9.333 9.333z"/><path d="M12.133 16v-1.973c0-2.547 1.8-3.574 4-2.307l1.707.987 1.707.986c2.2 1.267 2.2 3.347 0 4.614l-1.707.986-1.707.987c-2.2 1.267-4 .227-4-2.307V16z" stroke-miterlimit="10"/></g></svg>