<svg width="84" height="47" fill="none" xmlns="http://www.w3.org/2000/svg"><path d="M4.444 40.953H1.057v5.868h.595v-5.33h2.792v-.538zm3.344 3.63H5.604l.599-1.62.493-1.339.49 1.34.603 1.619zm-1.423-3.63L4.16 46.821h.61l.626-1.701h2.58l.636 1.7h.626l-2.2-5.867h-.674zm6.875 2.775c-.326.24-.727.355-1.131.325h-1.288V41.49h1.27c.41-.036.821.08 1.152.325a1.484 1.484 0 010 1.913h-.004zm-1.127-2.775h-1.884v5.867h.592v-2.238h1.27a2.275 2.275 0 001.596-.48 2.003 2.003 0 000-2.683 2.275 2.275 0 00-1.604-.473m5.85 3.562l-1.88-3.555h-.799v5.868h.596v-5.174l.38.813 1.397 2.641h.592l1.397-2.64.38-.814v5.174h.592v-5.868h-.776l-1.88 3.555zm6.309 1.816c-.251.002-.5-.047-.73-.145a1.667 1.667 0 01-.585-.422 2.078 2.078 0 01-.376-.682 2.66 2.66 0 01-.143-.922v-.537a2.83 2.83 0 01.139-.925c.08-.25.208-.48.377-.683.16-.181.359-.324.583-.417.238-.1.495-.15.754-.146.25 0 .498.05.727.15.223.096.422.24.584.421.167.202.295.434.376.683.102.295.152.605.147.917v.526c.005.316-.044.63-.143.929a1.95 1.95 0 01-.377.683c-.16.181-.359.324-.583.417a1.84 1.84 0 01-.754.142l.004.011zm1.752-.186c.226-.248.4-.539.512-.854.129-.367.191-.754.184-1.142v-.537a3.38 3.38 0 00-.18-1.141 2.462 2.462 0 00-.513-.862 2.163 2.163 0 00-.78-.533 2.544 2.544 0 00-.979-.187 2.482 2.482 0 00-.983.19c-.295.123-.56.307-.776.541-.225.25-.399.54-.512.854-.127.36-.189.739-.185 1.12v.555c-.006.39.055.78.181 1.15.11.315.285.606.512.853.219.232.485.415.78.537.311.125.644.188.98.187.334.002.666-.063.975-.19.295-.123.56-.308.776-.541m5.79-2.604h-3.3v-2.58h-.595v5.867h.595v-2.75h3.3v2.75h.591v-5.868h-.591v2.581zm3.088 1.776l-.493.88v-5.237h-.592v5.868h.814l2.588-4.36.501-.889v5.249h.584v-5.868h-.814l-2.588 4.357zm8.005-1.425h-1.27a1.692 1.692 0 01-1.13-.321 1.254 1.254 0 010-1.753c.327-.237.727-.35 1.13-.321h1.27v2.395zm-2.87-2.466a1.63 1.63 0 00-.517 1.268 1.72 1.72 0 00.31 1.045c.235.3.57.508.945.59l-1.424 2.498h.633l1.356-2.406h1.556v2.399h.591v-5.86h-1.86a2.325 2.325 0 00-1.602.466m10.186 3.164h-2.181l.599-1.62.49-1.339.493 1.34.599 1.619zm-1.42-3.63l-2.2 5.868h.606l.63-1.701h2.58l.636 1.7h.618l-2.2-5.867h-.67zm6.874 2.775a1.69 1.69 0 01-1.13.325h-1.27V41.49h1.27c.411-.036.822.08 1.153.325a1.483 1.483 0 010 1.913h-.023zm-1.107-2.775h-1.861v5.868h.591v-2.238h1.27a2.275 2.275 0 001.597-.482 2.003 2.003 0 000-2.682 2.306 2.306 0 00-1.605-.473m7.278.007h-.712l-1.91 2.581h-.93v-2.58h-.596v5.867h.595v-2.75h.938l2.057 2.75h.727l-2.294-3.026 2.125-2.842zm.847.537h1.948v5.33h.59v-5.33h1.948v-.537h-4.486v.537zm6.554 3.82l-.49.88v-5.237h-.59v5.868h.81l2.59-4.36.502-.889v5.249h.584v-5.868h-.814L69.19 45.31zm8.962-4.357h-.712l-1.91 2.581h-.93v-2.58h-.596v5.867h.596v-2.75h.938l2.056 2.75h.727l-2.294-3.026 2.125-2.842zm2.282 4.357l-.493.88v-5.237h-.591v5.868h.813l2.588-4.36.5-.889v5.249h.585v-5.868h-.814l-2.588 4.357zM11.86 20.758a.262.262 0 01-.124.218.27.27 0 01-.252.017 5.348 5.348 0 00-2.588-.567c-2.094 0-3.507-1.257-3.507-3.14 0-2.19 1.767-3.283 3.948-3.283h.474c1.462 0 2.068.6 2.068 1.97l-.019 4.785zm-1.352-9.49h-1.6c-4.058 0-6.984 2.052-6.984 5.577 0 2.734 1.506 4.458 3.864 5.304l-2.38 3.089a4.003 4.003 0 01-.155.183l-.207.235c-.21.229-.45.43-.712.6a1.855 1.855 0 01-1.243.108c-.539-.111-.945-.317-1.055.027-.195.604.445 1.865.83 2.42a1.506 1.506 0 001.299.553c1.819 0 3.07-.396 5.205-3.787l.072-.112c.083-.13.166-.268.252-.41L9.01 23.16l1.013.291c.53.151.994.468 1.326.903.331.436.511.966.512 1.51v3.115c2.844 0 3.285 0 3.285-1.64V15.792c0-3.252-1.27-4.51-4.637-4.51m65.188 2.941h2.535c1.657 0 2.32.627 2.32 2.186v12.574c2.844 0 3.285 0 3.285-1.641V16.054c0-3.442-1.078-4.785-4.694-4.785h-5.868c-.509 0-1.16-.053-1.778-.071a.512.512 0 00-.509.354c-.196.657-.829 2.369-.376 2.813.327.324.806-.232 1.823-.232l.037.09a48.534 48.534 0 01-1.367 9.228 9.713 9.713 0 01-.11.392l-.293.746-.09.235c-.407 1.153-.95 1.693-1.654 1.619-.614-.064-.953-.698-1.153-.463-.41.478-.4 1.866-.358 2.548a.516.516 0 00.41.459l.084.022a6.71 6.71 0 002.26.138c.128 0 .254-.02.377-.056 1.883-.276 3.092-1.697 3.604-4.345.953-4.898 1.507-10.523 1.507-10.523M52 22.343a77.821 77.821 0 012.941-7.296 71.716 71.716 0 012.924 7.595.193.193 0 01-.181.26.197.197 0 01-.117-.037 4.929 4.929 0 00-2.89-.966c-.847 0-1.678.238-2.395.687a.197.197 0 01-.29-.12.192.192 0 01.008-.12v-.003zm-2.181 6.644c.813 0 0-.414.651-1.545.607-.992 1.91-2.745 4.208-2.745 2.233 0 3.736 1.865 4.437 2.854.55 1.048-.188 1.436.595 1.436h3.786a179.075 179.075 0 00-7.006-18.043c-.23-.466-4.434 0-3.854.899.456.78-.335 1.988-.78 2.865-2.207 4.207-3.94 8.844-5.733 14.282h3.696v-.003zM37.577 17.714v11.27c2.87 0 3.118 0 3.118-1.866v-15.85c-1.506.056-3.092.247-4.444.877a116.695 116.695 0 01-4.995 11.262 112.08 112.08 0 01-5.19-12.138c-1.41.082-3.063.302-4.306.85v16.864h3.092V17.74a.207.207 0 01.169-.2.213.213 0 01.234.118 107.72 107.72 0 004.392 9.624 9.965 9.965 0 003.172-.574 91.392 91.392 0 004.347-9.05.21.21 0 01.093-.113c.044-.025.095-.034.145-.025a.21.21 0 01.173.213M61.673.5c-.06.275-.136 1.738-.98 2.64-.131.138-.636.545-.772.485-.422-.179-.61-1.253-.655-1.805-.08-.595-.025-1.2.162-1.772-1.13-.276-3.39.698-3.974 1.425.435.301.854.627 1.254.973.28.3.521.635.716.996.162.273.482.96.18 1.082a7.953 7.953 0 01-5.344 0c-.306-.123 0-.81.18-1.082.192-.361.431-.696.712-.996.4-.346.819-.672 1.255-.973-.584-.727-2.833-1.701-3.974-1.425.188.57.244 1.177.162 1.772-.046.552-.234 1.626-.656 1.805-.135.06-.64-.347-.772-.485-.844-.902-.92-2.365-.98-2.64-1.231.298-2.757 2.237-2.919 3.752 2.795 0 3.522 3.316 9.662 3.316 6.14 0 6.867-3.316 9.662-3.316C64.43 2.76 62.905.798 61.672.499z" fill="#009974"/></svg>