<svg width="84" height="30" fill="none" xmlns="http://www.w3.org/2000/svg"><g clip-path="url(#clip0)" fill="#009974"><path d="M11.878 20.945a.267.267 0 01-.377.237 5.34 5.34 0 00-2.593-.572c-2.099 0-3.514-1.269-3.514-3.174 0-2.206 1.77-3.31 3.955-3.31h.465c1.464 0 2.072.607 2.072 1.988l-.008 4.83zm-1.355-9.578H8.92c-4.065 0-6.998 2.07-6.998 5.647 0 2.76 1.51 4.518 3.873 5.354l-2.378 3.117-.155.185-.207.237a3.725 3.725 0 01-.714.588 1.87 1.87 0 01-1.245.109c-.54-.117-.948-.32-1.057.022-.197.61.445 1.883.83 2.448a1.51 1.51 0 001.302.557c1.823 0 3.076-.403 5.217-3.822a2.08 2.08 0 01.071-.113l.253-.414 1.317-1.912 1.016.293a2.547 2.547 0 011.834 2.436v3.148c2.85 0 3.291 0 3.291-1.657V15.92c0-3.284-1.271-4.552-4.646-4.552zm65.321 2.982h2.54c1.66 0 2.325.632 2.325 2.206v12.692c2.846 0 3.291 0 3.291-1.657v-11.4c0-3.48-1.08-4.83-4.703-4.83h-5.884c-.51 0-1.159-.054-1.778-.076a.51.51 0 00-.51.376c-.196.663-.83 2.391-.377 2.84.325.327.804-.238 1.823-.238l.041.094a49.323 49.323 0 01-1.37 9.315 5.756 5.756 0 01-.109.376l-.294.753-.091.234c-.408 1.163-.951 1.71-1.657 1.638-.623-.053-.962-.693-1.151-.456-.412.482-.4 1.883-.359 2.572a.53.53 0 00.412.463l.083.022c.741.174 1.507.22 2.264.14.128 0 .255-.02.378-.057 1.887-.282 3.099-1.713 3.616-4.386.955-4.947 1.51-10.621 1.51-10.621zm-23.757 8.196c1.193-3.336 2.23-5.9 2.952-7.368a72.708 72.708 0 012.929 7.666.196.196 0 01-.299.225 4.915 4.915 0 00-2.894-.975 4.538 4.538 0 00-2.405.693.2.2 0 01-.283-.241zm-2.181 6.702c.811 0 0-.418.653-1.559.603-1.001 1.913-2.775 4.216-2.775 2.234 0 3.744 1.883 4.446 2.884.55 1.058-.189 1.45.596 1.45h3.794a181.91 181.91 0 00-6.994-18.22c-.23-.47-4.443 0-3.862.912.457.787-.336 2.007-.781 2.892-2.212 4.246-3.948 8.923-5.748 14.416h3.706-.026zm-12.26-11.374v11.374c2.876 0 3.125 0 3.125-1.883V11.367c-1.51.056-3.098.248-4.453.884a118.652 118.652 0 01-4.99 11.367 113.567 113.567 0 01-5.216-12.251c-1.412.082-3.07.305-4.315.858v17.022h3.114V17.899a.214.214 0 01.177-.208.216.216 0 01.238.133 108.022 108.022 0 004.401 9.713 9.924 9.924 0 003.179-.58 92.512 92.512 0 004.325-9.16.215.215 0 01.415.076zM61.791.505c-.06.278-.136 1.754-.981 2.665-.132.14-.638.55-.774.49-.423-.181-.611-1.265-.657-1.823A3.936 3.936 0 0159.542.05c-1.133-.279-3.397.704-3.982 1.438.437.303.857.632 1.256.983.28.301.52.638.714 1.001.166.279.487.968.181 1.096a5.973 5.973 0 01-2.676.467 5.976 5.976 0 01-2.68-.467c-.302-.128 0-.817.181-1.096.196-.362.437-.699.718-1.001.399-.346.819-.668 1.256-.964C53.925.753 51.672-.23 50.528.049a4.04 4.04 0 01.163 1.788c-.046.558-.234 1.642-.657 1.823-.136.06-.642-.35-.774-.49-.845-.911-.925-2.387-.981-2.665-1.235.3-2.763 2.259-2.925 3.787 2.8 0 3.529 3.343 9.681 3.343 6.152 0 6.866-3.343 9.681-3.343-.162-1.506-1.69-3.486-2.925-3.787z"/></g><defs><clipPath id="clip0"><path fill="#fff" d="M0 0h84v30H0z"/></clipPath></defs></svg>